<?xml version="1.0" encoding="utf-8"?>
<!-- Generator: Adobe Illustrator 22.1.0, SVG Export Plug-In . SVG Version: 6.00 Build 0)  -->
<svg version="1.1" id="Capa_1" xmlns="http://www.w3.org/2000/svg" xmlns:xlink="http://www.w3.org/1999/xlink" x="0px" y="0px"
	 viewBox="0 0 48.3 18.3" style="enable-background:new 0 0 48.3 18.3;" xml:space="preserve">
<style type="text/css">
	.st0{fill:#036BB4;}
	.st1{fill:#FFFFFF;}
	.st2{fill:#F4F7FB;}
</style>
<g id="lx9U9B.tif_2_">
	<g>
		<path class="st0" d="M0,18.2C0,12.3,0,6.4,0,0.5c0-0.3,0.1-0.4,0.4-0.4c8.9,0,17.8,0,26.8,0c0,5.8,0,11.6,0,17.5
			c0,0.5-0.1,0.6-0.6,0.6C17.8,18.2,8.9,18.2,0,18.2z M6.9,10.1c0.4-0.5,0.8-0.4,1.2,0C7.9,9.6,7.9,9.2,8.4,8.9
			C7.9,9,7.6,8.8,7.5,8.2c0,0.6-0.4,0.7-0.9,0.7C7.2,9.2,7.1,9.6,6.9,10.1z M16.6,13.5c-0.1,0.6-0.4,0.7-1,0.7
			c0.6,0.3,0.6,0.6,0.4,1.1c0.4-0.4,0.7-0.4,1.1-0.1c-0.3-0.5-0.1-0.8,0.4-1.1C17,14.2,16.7,14.1,16.6,13.5z M19.1,10
			c0.4-0.5,0.8-0.2,1.2,0c-0.4-0.5-0.1-0.9,0.3-1.2c-0.6,0.2-0.8-0.2-1-0.7c0,0.6-0.4,0.7-0.9,0.7C19.2,9.2,19.4,9.5,19.1,10z
			 M11.5,14.2c-0.6,0.1-0.9-0.1-1-0.7c-0.1,0.6-0.4,0.8-0.9,0.7c0.5,0.2,0.6,0.6,0.3,1.1c0.3-0.2,0.5-0.3,0.6-0.3
			c0.2,0,0.3,0.3,0.5,0.2C11,14.7,11,14.7,11.5,14.2z M19.4,13.2c-0.4-0.6-0.1-0.9,0.4-1.2c-0.6,0.2-0.9-0.1-1-0.6
			c0.1,0.8-0.6,0.4-0.9,0.8c0.4,0.2,0.7,0.5,0.4,1C18.7,12.8,19,12.7,19.4,13.2z M9.4,3.6c0.4,0.3,0.8,0.5,0.4,1
			c0.7-0.1,0.9,0,1.3,0.1c-0.3-0.5-0.1-0.9,0.3-1.2c-0.6,0.1-0.9-0.1-1-0.7C10.4,3.5,10,3.6,9.4,3.6z M9.3,12
			c-0.5,0.1-0.8-0.1-1-0.7c-0.1,0.6-0.4,0.7-1,0.7c0.5,0.3,0.8,0.5,0.4,1.1c0.4-0.2,0.8-0.4,1.2,0.1C8.6,12.6,8.8,12.3,9.3,12z
			 M14.5,15c-0.6,0.1-0.8-0.2-1-0.7c-0.1,0.6-0.4,0.7-0.9,0.7c0.6,0.2,0.6,0.6,0.4,1.2c0.4-0.6,0.8-0.4,1.2,0
			C13.9,15.7,14,15.3,14.5,15z M16,4.8c0.3-0.4,0.7-0.4,1.2-0.1c-0.4-0.6,0.1-0.7,0.4-1.1c-0.7,0.2-0.9-0.1-1-0.6
			c-0.1,0.6-0.4,0.8-1,0.7C16.2,3.9,16.2,4.3,16,4.8z M8.3,5.1C8.2,5.7,8,6,7.4,5.9C7.9,6.2,8,6.5,7.7,7.1c0.4-0.5,0.8-0.4,1.2,0
			C8.6,6.5,8.8,6.2,9.3,5.9C8.6,5.8,8.6,5.8,8.3,5.1z M14.5,2.8c-0.7,0.2-0.8-0.2-1-0.7c-0.1,0.6-0.4,0.8-0.9,0.7
			C13,3.1,13.3,3.4,13,3.9c0.4-0.5,0.8-0.3,1.2,0C13.8,3.5,14,3.1,14.5,2.8z M17.9,5.9c0.5,0.3,0.6,0.6,0.3,1.1
			c0.4-0.4,0.8-0.4,1.2,0c-0.3-0.5-0.1-0.9,0.3-1.2C19.2,6,19,5.7,18.8,5.2C18.7,5.7,18.5,6,17.9,5.9z"/>
		<path class="st1" d="M0,18.2c8.9,0,17.7,0,26.6,0c0.4,0,0.6-0.1,0.6-0.6c0-5.8,0-11.6,0-17.5c0.2,0,0.1,0.1,0.1,0.2
			c0,5.9,0,11.8,0,17.6c0,0.2-0.1,0.3-0.3,0.3c-8.9,0-17.9,0-26.8,0C0.2,18.2,0,18.3,0,18.2z"/>
		<path class="st2" d="M6.9,10.1c0.2-0.5,0.3-0.9-0.4-1.1c0.5,0,0.9-0.1,0.9-0.7c0.1,0.6,0.4,0.8,1,0.7c-0.6,0.3-0.6,0.7-0.4,1.2
			C7.7,9.6,7.3,9.6,6.9,10.1z"/>
		<path class="st2" d="M16.6,13.5c0.1,0.6,0.4,0.7,0.9,0.7c-0.4,0.3-0.6,0.6-0.4,1.1C16.8,15,16.4,15,16,15.4
			c0.2-0.5,0.2-0.9-0.4-1.1C16.2,14.2,16.5,14.1,16.6,13.5z"/>
		<path class="st2" d="M19.1,10c0.2-0.5,0.1-0.8-0.4-1.1c0.5,0,0.9-0.1,0.9-0.7c0.1,0.5,0.4,0.8,1,0.7c-0.4,0.3-0.7,0.6-0.3,1.2
			C19.9,9.8,19.5,9.5,19.1,10z"/>
		<path class="st2" d="M11.5,14.2C11,14.7,11,14.7,11,15.3c-0.2,0-0.3-0.3-0.5-0.2c-0.2,0-0.3,0.2-0.6,0.3c0.3-0.5,0.2-0.9-0.3-1.1
			c0.5,0,0.9-0.1,0.9-0.7C10.6,14.1,10.9,14.3,11.5,14.2z"/>
		<path class="st2" d="M19.4,13.2c-0.4-0.5-0.8-0.4-1.2-0.1c0.3-0.5,0-0.8-0.4-1c0.3-0.3,1,0,0.9-0.8c0.2,0.5,0.4,0.9,1,0.6
			C19.4,12.3,19.1,12.6,19.4,13.2z"/>
		<path class="st2" d="M9.4,3.6c0.6,0,0.9-0.1,1-0.7c0.1,0.6,0.4,0.8,1,0.7c-0.5,0.3-0.7,0.6-0.3,1.2c-0.4-0.2-0.6-0.2-1.3-0.1
			C10.3,4.2,9.9,3.9,9.4,3.6z"/>
		<path class="st2" d="M9.3,12c-0.4,0.3-0.7,0.6-0.3,1.2c-0.4-0.4-0.8-0.3-1.2-0.1c0.4-0.5,0-0.8-0.4-1.1c0.6,0,1-0.1,1-0.7
			C8.4,11.9,8.7,12.1,9.3,12z"/>
		<path class="st2" d="M14.5,15c-0.6,0.3-0.6,0.6-0.3,1.1c-0.4-0.3-0.8-0.5-1.2,0c0.2-0.5,0.2-0.9-0.4-1.2c0.5,0,0.9-0.1,0.9-0.7
			C13.7,14.9,14,15.1,14.5,15z"/>
		<path class="st2" d="M16,4.8c0.2-0.5,0.2-0.9-0.4-1.1c0.6,0.1,0.9-0.1,1-0.7c0.1,0.6,0.4,0.8,1,0.6c-0.3,0.4-0.9,0.5-0.4,1.1
			C16.7,4.4,16.4,4.4,16,4.8z"/>
		<path class="st2" d="M8.3,5.1c0.3,0.7,0.3,0.7,1,0.8C8.8,6.2,8.6,6.5,8.9,7c-0.4-0.4-0.8-0.4-1.2,0C8,6.5,7.9,6.2,7.4,5.9
			C8,6,8.2,5.7,8.3,5.1z"/>
		<path class="st2" d="M14.5,2.8C14,3.1,13.8,3.5,14.2,4c-0.4-0.3-0.7-0.5-1.2,0c0.3-0.6,0-0.8-0.4-1.1c0.5,0.1,0.9-0.1,0.9-0.7
			C13.7,2.6,13.9,3,14.5,2.8z"/>
		<path class="st2" d="M17.9,5.9c0.6,0.1,0.8-0.2,0.9-0.7C19,5.7,19.1,6,19.8,5.9c-0.5,0.3-0.6,0.6-0.3,1.2c-0.4-0.4-0.8-0.5-1.2,0
			C18.5,6.5,18.4,6.2,17.9,5.9z"/>
	</g>
</g>
</svg>
