<?xml version="1.0" encoding="utf-8"?>
<!-- Generator: Adobe Illustrator 22.1.0, SVG Export Plug-In . SVG Version: 6.00 Build 0)  -->
<svg version="1.1" id="Capa_1" xmlns="http://www.w3.org/2000/svg" xmlns:xlink="http://www.w3.org/1999/xlink" x="0px" y="0px"
	 viewBox="0 0 48.3 18.3" style="enable-background:new 0 0 48.3 18.3;" xml:space="preserve">
<style type="text/css">
	.st0{fill:#FFFFFF;}
	.st1{fill:#E13A3A;}
	.st2{fill:#043979;}
</style>
<rect class="st0" width="27.3" height="18.2"/>
<g>
	<path class="st1" d="M27.3,11c-3.6,0-7.2,0-10.8,0c-0.4,0-0.5,0.1-0.5,0.5c0,2.1,0,4.1,0,6.2c0,0.5-0.1,0.7-0.7,0.6
		c-1.2,0-2.4,0-3.6,0c-0.5,0-0.7-0.1-0.7-0.6c0-2.1,0-4.1,0-6.2c0-0.5-0.1-0.6-0.7-0.6c-3.2,0-6.5,0-9.7,0c-0.5,0-0.7-0.1-0.6-0.6
		c0-0.8,0-1.6,0-2.4c0-0.4,0.2-0.5,0.6-0.5c3.2,0,6.5,0,9.7,0c0.6,0,0.7-0.2,0.7-0.7c0-2,0-4,0-6c0-0.5,0.2-0.6,0.7-0.6
		c1.2,0,2.4,0,3.6,0c0.5,0,0.6,0.1,0.6,0.6c0,2,0,4.1,0,6.1c0,0.5,0.1,0.7,0.7,0.7c3.5,0,7.1,0,10.6,0C27.3,8.6,27.3,9.8,27.3,11z"
		/>
	<path class="st2" d="M27.3,0.7c-0.8,0.2-1.5,0.6-2.3,1C22.5,2.8,20,4,17.4,5.1c-0.2,0.1-0.4,0.1-0.6,0.2c0-1.7,0-3.3,0-5
		c0-0.5,0.3-0.3,0.6-0.3c2.6,0,5.1,0,7.7,0c0.7,0,1.5,0,2.2,0C27.3,0.3,27.3,0.5,27.3,0.7z"/>
	<path class="st2" d="M27.3,18.3c-3.3,0-6.6,0-9.8,0c-0.6,0-0.7-0.2-0.7-0.6c0-1.5,0-3.1,0-4.7c3.5,1.6,7,3.2,10.5,4.8
		C27.3,17.9,27.3,18.1,27.3,18.3z"/>
	<path class="st1" d="M27.3,2.9c-1.9,0.9-3.8,1.7-5.7,2.6c-0.9,0.4-1.8,0.7-2.7,0.6c-0.5,0-1,0-1.5,0c-0.1-0.2,0.1-0.2,0.1-0.2
		c3.2-1.5,6.3-3,9.5-4.5c0.1,0,0.2,0,0.3-0.1C27.3,1.8,27.3,2.4,27.3,2.9z"/>
	<path class="st1" d="M27.3,15.6c-2.3-1.1-4.7-2.1-7-3.2c0,0,0-0.1,0-0.1c1,0,1.9-0.1,2.9,0c0.5,0.1,0.9,0.4,1.4,0.6
		c0.9,0.4,1.7,0.9,2.6,1.1C27.3,14.6,27.3,15.1,27.3,15.6z"/>
	<path class="st2" d="M27.3,13.1c-0.8-0.1-1.3-0.6-2-0.9c0.7,0,1.3,0,2,0C27.3,12.5,27.3,12.8,27.3,13.1z"/>
	<path class="st2" d="M27.3,6.1c-0.6,0-1.3,0-1.9,0c0.6-0.3,1.2-0.8,1.9-0.9C27.3,5.5,27.3,5.8,27.3,6.1z"/>
	<path class="st2" d="M5.2,18.3c-1.5,0-3,0-4.5,0c-0.2,0-0.5,0.1-0.5-0.2c0-0.3-0.1-0.5,0.3-0.7c3.1-1.4,6.2-2.8,9.3-4.2
		c0.3-0.2,0.6-0.2,0.6,0.3c0,1.4,0,2.9,0,4.3c0,0.4-0.1,0.5-0.6,0.5C8.2,18.3,6.7,18.3,5.2,18.3z"/>
	<path class="st2" d="M5.2,0.1c1.5,0,3,0,4.6,0c0.4,0,0.6,0.1,0.5,0.5c0,1.4,0,2.9,0,4.3c0,0.5-0.2,0.4-0.5,0.3
		C6.7,3.7,3.6,2.3,0.5,0.9C0.3,0.7,0.1,0.6,0.1,0.3c0.1-0.4,0.4-0.2,0.6-0.2C2.2,0.1,3.7,0.1,5.2,0.1z"/>
	<path class="st1" d="M0.2,16.9c-0.4-1.1,0.1-1.7,1.2-2.2c1.5-0.6,2.9-1.3,4.3-2c0.8-0.4,1.7-0.6,2.6-0.6c0.5,0,1,0,1.4,0
		c0,0.1,0,0.1,0.1,0.2C6.6,13.9,3.4,15.4,0.2,16.9z"/>
	<path class="st1" d="M0.1,3c2.1,1,4.2,2,6.2,2.9c0,0.1,0,0.1-0.1,0.2C5.1,6,3.9,6.4,2.7,5.8c-0.7-0.3-1.3-0.7-2-0.9
		C0.2,4.6,0,4.4,0.1,3.9C0.2,3.6,0.1,3.4,0.1,3z"/>
	<path class="st2" d="M1.9,12.3c-0.6,0.2-1.1,0.5-1.7,0.8c-0.1-0.9-0.1-0.9,0.8-0.9c0.3,0,0.6,0,0.9,0C1.9,12.3,1.9,12.3,1.9,12.3z"
		/>
	<path class="st2" d="M0.2,5.3C0.8,5.5,1.3,5.8,1.8,6c0,0,0,0.1,0,0.1c-0.3,0-0.6,0-0.9,0C0.2,6.2,0,5.9,0.2,5.3z"/>
</g>
</svg>
