<?xml version="1.0" standalone="no"?>
<!DOCTYPE svg PUBLIC "-//W3C//DTD SVG 20010904//EN"
 "http://www.w3.org/TR/2001/REC-SVG-20010904/DTD/svg10.dtd">
<svg version="1.0" xmlns="http://www.w3.org/2000/svg"
 width="300.000000pt" height="63.000000pt" viewBox="0 0 300.000000 63.000000"
 preserveAspectRatio="xMidYMid meet">
<metadata>
Created by potrace 1.10, written by Peter Selinger 2001-2011
</metadata>
<g transform="translate(0.000000,63.000000) scale(0.100000,-0.100000)"
fill="#000000" stroke="none">
<path d="M478 478 c6 -8 7 -47 3 -105 -5 -79 -4 -93 9 -93 12 0 14 14 11 85
-1 47 0 85 4 85 4 0 40 -29 80 -65 l73 -66 48 67 49 66 3 -78 c2 -55 -1 -80
-10 -85 -8 -5 5 -8 32 -8 25 0 39 3 33 6 -17 6 -18 174 -1 191 9 9 5 12 -18
12 -26 0 -38 -10 -79 -65 l-49 -64 -72 64 c-51 46 -80 65 -99 65 -21 0 -25 -3
-17 -12z"/>
<path d="M1000 479 c-44 -18 -80 -60 -80 -94 0 -35 37 -77 83 -94 80 -31 208
4 236 63 20 42 -6 91 -62 116 -46 21 -135 26 -177 9z m132 -9 c77 -22 102 -98
48 -144 -81 -68 -224 -31 -224 58 0 44 27 75 75 86 48 11 59 11 101 0z"/>
<path d="M1358 478 c7 -7 12 -43 12 -93 0 -50 -5 -86 -12 -93 -9 -9 -1 -12 38
-12 43 1 47 2 32 14 -15 11 -18 29 -18 95 0 92 6 100 69 85 31 -8 36 -13 39
-41 4 -36 -22 -56 -70 -55 -15 0 -28 -4 -28 -9 0 -5 7 -9 16 -9 8 0 34 -21 57
-46 39 -44 89 -74 120 -74 7 0 22 7 33 15 18 13 16 14 -16 9 -32 -5 -41 -1
-98 50 -42 38 -57 56 -45 56 10 0 29 7 41 16 32 22 27 74 -8 91 -34 17 -179
18 -162 1z"/>
<path d="M1658 465 c-6 -30 3 -32 20 -4 10 15 21 19 45 17 l32 -3 3 -83 c2
-53 -1 -89 -9 -98 -9 -12 -4 -14 32 -14 33 0 40 3 31 12 -8 8 -12 45 -12 100
l0 88 30 0 c17 0 38 -9 51 -22 18 -19 21 -20 15 -5 -3 10 -6 23 -6 28 0 5 -51
9 -114 9 -113 0 -114 0 -118 -25z"/>
<path d="M2052 469 c-28 -14 -49 -34 -59 -54 -14 -29 -14 -35 1 -63 22 -44 82
-72 150 -72 66 0 102 12 139 48 51 48 24 121 -56 151 -47 18 -128 13 -175 -10z
m179 -15 c54 -28 60 -96 12 -134 -33 -25 -102 -35 -148 -20 -133 44 -75 192
69 174 21 -2 51 -11 67 -20z"/>
<path d="M2428 478 c17 -17 16 -185 0 -191 -7 -3 7 -5 32 -5 25 0 39 2 33 5
-9 3 -13 29 -13 79 l0 75 70 -62 c39 -35 70 -71 70 -81 0 -14 8 -18 32 -18 25
0 29 3 20 12 -7 7 -12 43 -12 93 0 50 5 86 12 93 9 9 2 12 -32 12 -34 0 -41
-3 -32 -12 7 -7 12 -39 12 -76 l0 -63 -70 62 c-38 35 -70 69 -70 76 0 8 -12
13 -32 13 -25 0 -29 -3 -20 -12z"/>
<path d="M493 163 c-20 -8 -15 -22 12 -35 14 -6 25 -15 25 -21 0 -5 -11 -6
-25 -3 -15 4 -25 2 -25 -4 0 -15 62 -8 68 7 2 7 -8 18 -22 24 -34 16 -34 33 0
25 17 -5 23 -3 19 4 -6 10 -31 12 -52 3z"/>
<path d="M770 136 c0 -34 13 -46 50 -46 10 0 22 5 25 10 11 18 15 70 5 70 -5
0 -10 -15 -12 -32 -2 -25 -8 -33 -23 -33 -15 0 -21 8 -23 33 -4 43 -22 41 -22
-2z"/>
<path d="M1080 130 c0 -26 5 -40 13 -40 9 0 12 11 9 35 -4 30 -1 35 17 35 22
0 30 -20 9 -20 -7 0 -5 -5 5 -11 9 -5 17 -14 17 -19 0 -5 -8 -11 -17 -13 -14
-4 -13 -5 4 -6 27 -1 39 15 24 33 -6 7 -8 16 -4 20 11 11 -18 26 -49 26 -26 0
-28 -3 -28 -40z"/>
<path d="M1411 139 c-25 -40 -27 -56 -6 -39 8 7 15 19 15 26 0 22 16 16 28
-11 6 -14 16 -25 22 -25 15 0 13 7 -14 47 l-25 36 -20 -34z"/>
<path d="M1704 158 c-4 -7 2 -18 14 -26 28 -18 29 -36 2 -29 -11 3 -20 1 -20
-5 0 -5 12 -8 27 -6 34 4 43 33 14 43 -12 3 -21 11 -21 16 0 6 9 7 20 4 11 -4
20 -2 20 4 0 15 -47 14 -56 -1z"/>
<path d="M1980 159 c0 -6 7 -9 15 -5 12 4 15 -3 15 -29 0 -22 5 -35 13 -35 9
0 12 11 9 36 -4 34 -3 36 18 29 15 -5 20 -4 16 4 -9 14 -86 14 -86 0z"/>
<path d="M2303 130 c-12 -22 -17 -40 -12 -40 5 0 15 11 21 25 6 14 14 25 18
25 4 0 12 -11 18 -25 6 -14 16 -25 22 -25 6 0 0 18 -12 40 -13 22 -25 40 -28
40 -3 0 -15 -18 -27 -40z"/>
<path d="M2604 158 c-4 -7 2 -18 14 -26 28 -18 29 -36 2 -29 -11 3 -20 1 -20
-4 0 -13 48 -11 56 3 4 6 -2 19 -14 29 -27 22 -28 32 -2 24 11 -4 20 -2 20 4
0 15 -47 14 -56 -1z"/>
</g>
</svg>
