<?xml version="1.0" encoding="utf-8"?>
<!-- Generator: Adobe Illustrator 22.1.0, SVG Export Plug-In . SVG Version: 6.00 Build 0)  -->
<!DOCTYPE svg PUBLIC "-//W3C//DTD SVG 1.1//EN" "http://www.w3.org/Graphics/SVG/1.1/DTD/svg11.dtd" [
	<!ENTITY st0 "fill:#FFFFFF;">
	<!ENTITY st1 "fill:#C2D500;">
]>
<svg version="1.1" id="Capa_1" xmlns="http://www.w3.org/2000/svg" xmlns:xlink="http://www.w3.org/1999/xlink" x="0px" y="0px"
	 viewBox="0 0 469.51 99.169" style="enable-background:new 0 0 469.51 99.169;" xml:space="preserve">
<g>
	<g>
		<path style="&st0;" d="M105.829,82.938c0-2.041-0.81-2.676-2.255-2.676c-0.244,0-0.42-0.176-0.42-0.386
			c0-0.176,0.104-0.386,0.42-0.353c0.917,0.071,2.36,0.106,2.888,0.106c0.81,0,1.83-0.035,2.816-0.106
			c0.282-0.034,0.424,0.177,0.424,0.353c0,0.176-0.142,0.386-0.388,0.386c-1.337,0-2.254,0.388-2.254,2.676v9.472
			c0,4.823-3.273,6.759-6.83,6.759c-5.28,0-8.133-2.605-8.133-6.863v-9.436c0-2.007-0.562-2.606-2.041-2.606
			c-0.246,0-0.386-0.211-0.386-0.386c0-0.176,0.14-0.353,0.386-0.353c1.161,0,2.465,0.106,3.661,0.106
			c1.161,0,2.571-0.035,3.803-0.106c0.28,0,0.422,0.177,0.422,0.353c0,0.176-0.142,0.386-0.388,0.386
			c-1.337,0-2.287,0.388-2.287,2.606v9.505c0,3.661,1.268,5.633,4.963,5.633c2.36,0,5.599-0.879,5.599-5.702V82.938z"/>
		<path style="&st0;" d="M148.487,98.818c-0.246,0-0.422-0.211-0.422-0.353c0-0.211,0.14-0.386,0.388-0.386
			c1.479,0,2.076-0.528,2.076-2.571V82.869c0-2.007-0.457-2.606-1.972-2.606c-0.282,0-0.386-0.211-0.386-0.386
			c0-0.176,0.14-0.353,0.386-0.353c1.161,0.071,2.043,0.142,3.239,0.142c1.443,0,3.344-0.176,4.823-0.176
			c3.415,0,7.147,1.055,7.147,4.576c0,2.536-2.851,4.014-4.964,4.436c2.746,0.351,6.055,1.83,6.055,4.927
			c0,3.663-3.238,5.424-7.323,5.424c-1.723,0-3.661-0.176-5.387-0.176C150.987,98.678,149.683,98.747,148.487,98.818z
			 M153.698,80.509v7.571h1.972c3.626,0,4.929-1.725,4.929-3.945c0-2.851-1.761-3.801-4.403-3.801
			C155.318,80.334,154.262,80.44,153.698,80.509z M153.698,89.099v8.59c0.316,0.071,1.761,0.317,2.993,0.317
			c3.59,0,4.963-1.761,4.963-4.505c0-3.17-2.534-4.403-5.879-4.403H153.698z"/>
		<path style="&st0;" d="M212.357,98.818c-0.247,0-0.422-0.177-0.422-0.388c0-0.211,0.14-0.351,0.422-0.351
			c1.479,0,1.972-0.915,1.55-1.903l-2.5-5.844h-5.457c-0.739,1.796-1.548,3.697-2.252,5.457c-0.528,1.339,0.104,2.289,1.69,2.289
			c0.351,0,0.528,0.14,0.528,0.351c0,0.248-0.177,0.388-0.459,0.388c-1.055-0.071-1.936-0.106-2.922-0.106
			c-0.915,0-1.514,0.035-2.569,0.106c-0.246,0-0.493-0.106-0.493-0.388c0-0.211,0.176-0.351,0.493-0.351
			c0.986,0,1.865-0.599,2.429-1.936c2.218-5.14,4.472-10.598,6.583-16.055c0.14-0.386,0.282-0.844,0.597-0.844
			c0.388,0,0.424,0.316,0.67,0.915c1.901,4.576,6.723,15.562,6.723,15.562c0.668,1.477,1.479,2.358,2.642,2.358
			c0.28,0,0.456,0.14,0.456,0.386c0,0.176-0.14,0.353-0.386,0.353c-1.092-0.071-2.465-0.106-3.59-0.106
			C214.751,98.711,213.625,98.747,212.357,98.818z M206.267,89.452h4.789c-0.81-1.865-1.692-3.766-2.466-5.598L206.267,89.452z"/>
		<path style="&st0;" d="M257.579,97.796c-0.211-0.106-0.386-0.317-0.351-0.668c0.069-1.092,0.069-1.832,0-3.168
			c0-0.246,0.211-0.388,0.386-0.388c0.176,0,0.353,0.142,0.387,0.353c0.317,1.796,1.268,4.401,5.142,4.401
			c2.429,0,4.858-1.057,4.858-3.521c0-5.351-10.915-3.557-10.915-10.456c0-2.782,2.747-5.175,6.479-5.175
			c1.725,0,3.519,0.564,4.365,0.95c0.246,0.106,0.493,0.282,0.493,0.704c-0.069,1.161-0.069,1.761,0,3.028
			c0,0.176-0.14,0.353-0.388,0.353c-0.175,0-0.351-0.177-0.351-0.388c-0.176-2.606-1.972-3.801-4.119-3.801
			c-2.254,0-4.472,1.055-4.472,3.344c0,4.894,11.266,3.555,11.266,10.14c0,3.941-3.519,5.667-7.216,5.667
			C260.079,99.169,258.318,98.218,257.579,97.796z"/>
		<path style="&st0;" d="M313.978,80.722h-2.396c-2.323,0-3.168,1.09-3.484,3.026c-0.035,0.246-0.106,0.459-0.388,0.459
			c-0.282,0-0.317-0.213-0.317-0.459c0.035-0.493,0.035-2.112,0-3.45c-0.034-0.704,0.317-0.808,0.706-0.808
			c2.64,0.069,5.245,0.105,7.496,0.105c2.149,0,4.791-0.035,7.395-0.105c0.422,0,0.739,0.105,0.739,0.597
			c-0.035,1.303-0.035,3.168,0,3.661c0,0.246-0.071,0.459-0.353,0.459c-0.246,0-0.351-0.213-0.351-0.459
			c-0.317-1.936-1.128-3.026-3.521-3.026h-2.358v14.785c0,2.147,0.95,2.571,2.534,2.571c0.248,0,0.422,0.176,0.422,0.386
			c0,0.176-0.14,0.353-0.386,0.353c-1.23-0.071-2.957-0.106-4.083-0.106c-1.128,0-2.851,0.035-4.014,0.106
			c-0.282,0-0.457-0.14-0.457-0.353c0-0.211,0.176-0.386,0.457-0.386c1.514,0,2.36-0.528,2.36-2.571V80.722z"/>
		<path style="&st0;" d="M370.839,98.818c-0.245,0-0.422-0.177-0.422-0.388c0-0.211,0.142-0.351,0.422-0.351
			c1.479,0,1.972-0.915,1.55-1.903l-2.5-5.844h-5.457c-0.739,1.796-1.548,3.697-2.252,5.457c-0.528,1.339,0.105,2.289,1.69,2.289
			c0.351,0,0.528,0.14,0.528,0.351c0,0.248-0.177,0.388-0.459,0.388c-1.055-0.071-1.934-0.106-2.922-0.106
			c-0.915,0-1.514,0.035-2.569,0.106c-0.246,0-0.493-0.106-0.493-0.388c0-0.211,0.176-0.351,0.493-0.351
			c0.986,0,1.865-0.599,2.429-1.936c2.218-5.14,4.472-10.598,6.583-16.055c0.142-0.386,0.282-0.844,0.597-0.844
			c0.388,0,0.424,0.316,0.67,0.915c1.901,4.576,6.723,15.562,6.723,15.562c0.668,1.477,1.481,2.358,2.642,2.358
			c0.282,0,0.457,0.14,0.457,0.386c0,0.176-0.14,0.353-0.388,0.353c-1.09-0.071-2.465-0.106-3.59-0.106
			C373.232,98.711,372.106,98.747,370.839,98.818z M364.748,89.452h4.789c-0.81-1.865-1.692-3.766-2.465-5.598L364.748,89.452z"/>
		<path style="&st0;" d="M416.183,97.796c-0.211-0.106-0.386-0.317-0.351-0.668c0.069-1.092,0.069-1.832,0-3.168
			c0-0.246,0.211-0.388,0.386-0.388c0.176,0,0.353,0.142,0.386,0.353c0.317,1.796,1.268,4.401,5.142,4.401
			c2.427,0,4.858-1.057,4.858-3.521c0-5.351-10.915-3.557-10.915-10.456c0-2.782,2.746-5.175,6.479-5.175
			c1.725,0,3.519,0.564,4.365,0.95c0.246,0.106,0.493,0.282,0.493,0.704c-0.071,1.161-0.071,1.761,0,3.028
			c0,0.176-0.142,0.353-0.388,0.353c-0.176,0-0.351-0.177-0.351-0.388c-0.176-2.606-1.972-3.801-4.119-3.801
			c-2.254,0-4.472,1.055-4.472,3.344c0,4.894,11.266,3.555,11.266,10.14c0,3.941-3.521,5.667-7.216,5.667
			C418.683,99.169,416.923,98.218,416.183,97.796z"/>
		<path style="&st0;" d="M40.132,97.796c-0.211-0.106-0.386-0.317-0.351-0.668c0.069-1.092,0.069-1.832,0-3.168
			c0-0.246,0.211-0.388,0.386-0.388c0.175,0,0.353,0.142,0.386,0.353c0.317,1.796,1.268,4.401,5.142,4.401
			c2.427,0,4.858-1.057,4.858-3.521c0-5.351-10.915-3.557-10.915-10.456c0-2.782,2.746-5.175,6.479-5.175
			c1.725,0,3.519,0.564,4.365,0.95c0.247,0.106,0.493,0.282,0.493,0.704c-0.071,1.161-0.071,1.761,0,3.028
			c0,0.176-0.142,0.353-0.388,0.353c-0.175,0-0.351-0.177-0.351-0.388c-0.176-2.606-1.972-3.801-4.119-3.801
			c-2.254,0-4.472,1.055-4.472,3.344c0,4.894,11.266,3.555,11.266,10.14c0,3.941-3.521,5.667-7.216,5.667
			C42.632,99.169,40.871,98.218,40.132,97.796z"/>
	</g>
	<g>
		<path style="&st0;" d="M67.543,49.152c0.397,6.502,2.695,8.087,7.136,8.087c0.712,0,1.03,0.397,1.03,0.872
			c0,0.397-0.318,0.872-1.03,0.872c-3.409-0.158-7.136-0.396-10.466-0.396c-3.329,0-8.641,0.239-12.208,0.396
			c-0.633,0-0.951-0.396-0.951-0.872c0-0.396,0.396-0.872,1.03-0.872c4.757,0,6.66-1.347,6.343-8.087L55.81,5.55
			c-5.55,14.27-8.562,20.692-20.453,53.275c-0.158,0.476-0.476,0.712-1.03,0.712c-0.556,0-0.872-0.237-1.111-0.712
			c-11.019-26.4-17.995-45.427-19.66-49.708c0,0-1.823,26.717-2.379,40.035c-0.316,6.739,1.586,8.087,6.343,8.087
			c0.635,0,0.951,0.476,0.951,0.872c0,0.476-0.237,0.872-0.87,0.872c-3.569-0.158-5.631-0.396-8.959-0.396
			c-3.33,0-4.202,0.239-7.611,0.396c-0.714,0-1.03-0.476-1.03-0.872c0-0.476,0.316-0.872,1.03-0.872
			c4.439,0,6.739-1.584,7.136-8.087C9.036,34.803,10.78,9.117,10.78,9.117c0.318-3.885-0.555-6.341-6.262-6.341
			c-0.554,0-0.793-0.396-0.793-0.872c0-0.397,0.318-0.872,0.872-0.872c3.49,0.079,11.972,0.158,16.014,0
			c6.104,16.251,10.622,29.49,16.886,44.316c6.58-17.362,16.965-44.316,16.965-44.316c6.104,0.237,13.637,0,15.855,0
			c0.635,0,1.032,0.395,1.032,0.872c0,0.555-0.397,0.872-0.951,0.872c-3.33,0-5.788,0.158-5.392,6.104L67.543,49.152z"/>
		<path style="&st0;" d="M98.252,30.048C98.252,15.777,108.479,0,126.713,0c18.629,0,28.46,15.856,28.46,30.048
			c0,16.488-11.179,29.965-28.46,29.965C109.034,60.013,98.252,46.457,98.252,30.048z M107.925,30.048
			c0,17.202,5.548,27.903,18.788,27.903c13.238,0,18.867-11.256,18.867-27.903c0-15.381-4.518-27.986-18.948-27.986
			C112.362,2.062,107.925,15.46,107.925,30.048z"/>
		<path style="&st0;" d="M180.338,58.983c-0.714,0-1.03-0.476-1.03-0.872c0-0.476,0.316-0.872,1.03-0.872
			c4.439,0,6.341-1.584,6.341-8.087V10.861c0-6.262-1.663-8.085-6.104-8.085c-0.633,0-0.951-0.477-0.951-0.953
			c0-0.397,0.318-0.872,0.951-0.791c3.569,0.237,6.897,0.395,10.465,0.395c3.648,0,5.867-0.079,12.287-0.395
			c11.259-0.554,20.057,4.439,20.057,14.507c0,7.373-5.311,13.319-14.903,15.142l11.732,17.6c3.727,5.469,6.739,8.166,10.782,8.166
			c1.981,0,3.488-0.635,4.439-1.507c0.16-0.16,0.397-0.239,0.556-0.239c0.555,0,1.03,0.793,0.397,1.507
			c-1.904,2.218-6.264,3.567-10.149,3.567c-7.213,0-11.494-4.441-15.776-11.019l-11.019-16.888c-1.111,0-2.697-0.079-4.044-0.237
			v17.52c0.081,6.422,2.141,8.087,7.532,8.087c0.713,0,1.109,0.318,1.109,0.872c0,0.556-0.476,0.872-1.03,0.872
			c-3.488-0.158-7.769-0.396-11.496-0.396C188.186,58.586,183.668,58.825,180.338,58.983z M195.399,3.727v25.765
			c1.665,0.239,4.441,0.396,6.422,0.396c7.691,0,12.684-3.251,12.684-14.349c0-7.848-4.915-12.684-12.526-12.684
			C198.492,2.855,196.431,3.409,195.399,3.727z"/>
		<path style="&st0;" d="M274.187,4.202h-7.69c-7.777,0-10.228,3.013-11.156,9.435c-0.086,0.712-0.337,1.109-1.014,1.109
			c-0.676,0-0.846-0.554-0.846-1.188c0.254-3.965,0.17-7.769,0.084-11.1c0-1.269,0.846-1.507,2.028-1.507
			c8.199,0.16,16.313,0.239,23.243,0.239s15.042-0.079,23.243-0.239c1.183,0,2.027,0.239,2.027,1.507
			c-0.084,3.488-0.168,7.134,0.084,11.1c0,0.633-0.168,1.188-0.846,1.188c-0.676,0-0.928-0.397-1.012-1.109
			c-0.93-6.422-3.381-9.435-11.157-9.435h-7.691v44.949c0,6.739,2.79,8.087,7.859,8.087c0.677,0,1.016,0.476,1.016,0.872
			c0,0.476-0.253,0.872-0.93,0.872c-3.804-0.158-8.875-0.396-12.424-0.396s-8.452,0.239-12.086,0.396
			c-0.762,0-1.098-0.476-1.098-0.872c0-0.476,0.337-0.872,1.098-0.872c4.732,0,7.268-1.584,7.268-8.087V4.202z"/>
		<path style="&st0;" d="M327.277,30.048C327.277,15.777,337.505,0,355.739,0c18.63,0,28.46,15.856,28.46,30.048
			c0,16.488-11.179,29.965-28.46,29.965C338.061,60.013,327.277,46.457,327.277,30.048z M336.95,30.048
			c0,17.202,5.548,27.903,18.788,27.903s18.869-11.256,18.869-27.903c0-15.381-4.52-27.986-18.948-27.986
			C341.389,2.062,336.95,15.46,336.95,30.048z"/>
		<path style="&st0;" d="M457.983,43.128V10.861c0-6.262-2.448-8.085-7.015-8.085c-0.653,0-0.979-0.477-0.979-0.953
			c0-0.397,0.326-0.791,0.979-0.791c3.507,0.158,5.22,0.395,8.892,0.395c3.425,0,4.732-0.237,8.564-0.395
			c0.735,0,1.061,0.395,1.061,0.872c0,0.395-0.326,0.872-0.977,0.872c-4.081,0-7.018,1.188-7.018,8.085v48.043
			c0,0.554-0.242,1.109-1.06,1.109c-0.409,0-0.897-0.237-1.386-0.872L416.948,8.166v40.986c0,6.739,2.204,8.087,7.099,8.087
			c0.651,0,0.977,0.476,0.977,0.872c0,0.476-0.244,0.872-0.897,0.872c-3.671-0.158-5.222-0.396-8.647-0.396
			c-3.427,0-5.06,0.239-8.568,0.396c-0.733,0-1.06-0.476-1.06-0.872c0-0.476,0.326-0.872,1.06-0.872
			c4.569,0,6.527-1.584,6.527-8.087V10.861c0-6.262-1.714-8.085-6.281-8.085c-0.653,0-0.979-0.477-0.979-0.953
			c0-0.397,0.326-0.791,0.979-0.791c3.507,0.158,4.486,0.395,8.159,0.395c2.037,0,5.383-0.158,7.996-0.395
			C437.017,17.204,455.046,39.48,457.983,43.128z"/>
	</g>
	<rect y="83.076" style="&st1;" width="11.935" height="11.659"/>
	<rect x="457.573" y="81.266" style="&st1;" width="11.937" height="11.659"/>
</g>
</svg>
