<?xml version="1.0" standalone="no"?>
<!DOCTYPE svg PUBLIC "-//W3C//DTD SVG 20010904//EN"
 "http://www.w3.org/TR/2001/REC-SVG-20010904/DTD/svg10.dtd">
<svg version="1.0" xmlns="http://www.w3.org/2000/svg"
 width="320.000000pt" height="183.000000pt" viewBox="0 0 320.000000 183.000000"
 preserveAspectRatio="xMidYMid meet">

<g transform="translate(0.000000,183.000000) scale(0.100000,-0.100000)"
fill="#000000" stroke="none">
<path d="M0 915 l0 -915 530 0 530 0 0 915 0 915 -530 0 -530 0 0 -915z"/>
<path d="M2132 918 l3 -913 533 -3 532 -2 0 915 0 915 -535 0 -535 0 2 -912z"/>
<path d="M1578 1248 c-13 -13 -14 -18 -5 -18 15 0 47 -31 47 -45 0 -4 -7 -2
-15 5 -14 12 -35 6 -35 -10 0 -5 7 -15 15 -24 13 -13 13 -16 0 -30 -9 -9 -15
-24 -13 -33 2 -14 -4 -18 -29 -17 -18 0 -33 -4 -34 -8 -6 -42 17 -118 36 -118
5 0 15 -11 21 -24 9 -20 9 -26 -2 -30 -8 -3 -14 0 -14 6 0 9 -3 9 -11 1 -20
-20 -1 -32 34 -22 27 8 35 6 50 -13 21 -25 57 -34 68 -17 5 9 11 8 23 -3 17
-17 81 -17 110 -1 13 7 3 18 -50 58 -41 29 -70 59 -76 77 -7 19 -15 27 -24 24
-8 -3 -14 -1 -14 4 0 24 38 13 69 -19 21 -22 29 -27 22 -14 -17 33 -13 41 8
15 14 -16 21 -18 25 -10 4 7 4 3 2 -10 -2 -12 0 -20 5 -16 5 3 9 0 9 -6 0 -6
5 -8 10 -5 6 3 11 -2 11 -12 1 -10 5 0 9 22 l7 40 2 -35 c1 -19 6 -44 11 -55
8 -17 9 -16 11 10 2 24 3 21 8 -15 6 -40 8 -34 15 52 7 84 6 103 -9 135 -25
53 -65 104 -76 97 -5 -3 -8 0 -7 6 2 7 -5 14 -15 15 -11 2 -22 7 -25 11 -4 4
1 4 11 1 9 -4 17 -3 17 1 0 9 -96 52 -116 52 -8 0 -14 -4 -14 -10 0 -12 -47
-14 -52 -2 -1 4 -11 0 -20 -10z m79 -105 c-3 -10 -5 -2 -5 17 0 19 2 27 5 18
2 -10 2 -26 0 -35z m93 -84 c0 -6 -4 -7 -10 -4 -5 3 -10 11 -10 16 0 6 5 7 10
4 6 -3 10 -11 10 -16z m35 11 c-3 -5 -11 -10 -16 -10 -6 0 -7 5 -4 10 3 6 11
10 16 10 6 0 7 -4 4 -10z m-248 -17 c-4 -3 -1 -16 7 -29 17 -25 10 -40 -11
-23 -16 14 -17 59 -1 59 6 0 8 -3 5 -7z m37 -15 c9 -36 7 -41 -9 -24 -16 16
-20 46 -6 46 5 0 11 -10 15 -22z m71 -75 c-16 -16 -25 -17 -25 -3 0 18 24 39
32 27 3 -6 0 -16 -7 -24z m162 5 c-3 -7 -5 -2 -5 12 0 14 2 19 5 13 2 -7 2
-19 0 -25z m-202 -18 c3 -5 1 -10 -4 -10 -6 0 -11 5 -11 10 0 6 2 10 4 10 3 0
8 -4 11 -10z"/>
<path d="M1514 1208 c4 -15 -18 -34 -37 -29 -5 1 -6 -3 -2 -9 3 -5 15 -10 26
-10 10 0 19 -4 19 -10 0 -14 37 -13 46 2 5 8 2 9 -9 5 -14 -5 -15 -2 -6 20 8
21 7 24 -6 20 -8 -4 -19 1 -25 11 -10 15 -11 15 -6 0z"/>
<path d="M1430 980 c6 -11 16 -20 22 -20 6 0 3 9 -7 20 -10 11 -20 20 -22 20
-2 0 1 -9 7 -20z"/>
<path d="M1465 940 c-3 -5 -1 -10 4 -10 6 0 11 5 11 10 0 6 -2 10 -4 10 -3 0
-8 -4 -11 -10z"/>
<path d="M1961 934 c0 -11 3 -14 6 -6 3 7 2 16 -1 19 -3 4 -6 -2 -5 -13z"/>
<path d="M1490 930 c0 -5 5 -10 10 -10 6 0 10 5 10 10 0 6 -4 10 -10 10 -5 0
-10 -4 -10 -10z"/>
<path d="M1215 911 c-3 -5 -1 -12 5 -16 5 -3 10 1 10 9 0 18 -6 21 -15 7z"/>
<path d="M1339 903 c-9 -63 52 -118 64 -58 2 14 2 24 -1 21 -2 -3 -10 0 -18 7
-34 31 -44 37 -45 30z"/>
<path d="M1455 900 c-3 -5 -2 -10 4 -10 5 0 13 5 16 10 3 6 2 10 -4 10 -5 0
-13 -4 -16 -10z"/>
<path d="M1417 821 c-16 -18 20 -44 53 -37 15 2 32 -2 42 -11 21 -19 73 -20
94 -2 8 6 14 8 14 4 0 -4 11 0 25 9 27 18 51 21 59 7 3 -5 -6 -8 -20 -8 -28 0
-64 -29 -64 -50 0 -8 -5 -11 -11 -7 -7 4 -10 1 -7 -7 9 -26 37 -22 48 6 10 26
12 27 70 20 65 -8 90 2 90 36 0 22 -23 25 -39 5 -6 -8 -21 -16 -31 -19 -15 -4
-20 0 -20 16 0 18 2 19 10 7 9 -13 10 -13 10 1 0 11 -11 15 -37 16 -21 1 -42
-2 -48 -5 -18 -11 -50 -9 -79 5 -15 8 -37 13 -47 10 -13 -3 -17 -1 -12 6 4 7
0 6 -10 -1 -16 -14 -42 -8 -32 8 8 14 -46 6 -58 -9z"/>
<path d="M1583 814 c16 -8 31 -13 35 -10 8 8 1 12 -33 20 l-30 6 28 -16z"/>
<path d="M1920 809 c-6 -11 -10 -25 -7 -32 2 -6 9 3 15 21 12 36 8 42 -8 11z"/>
<path d="M1275 810 c-3 -5 -1 -10 4 -10 6 0 11 5 11 10 0 6 -2 10 -4 10 -3 0
-8 -4 -11 -10z"/>
<path d="M1285 780 c3 -5 8 -10 11 -10 2 0 4 5 4 10 0 6 -5 10 -11 10 -5 0 -7
-4 -4 -10z"/>
<path d="M1345 720 c-3 -5 -1 -10 4 -10 6 0 11 5 11 10 0 6 -2 10 -4 10 -3 0
-8 -4 -11 -10z"/>
<path d="M1819 703 c-8 -9 -5 -11 12 -8 31 6 44 21 18 21 -11 0 -25 -6 -30
-13z"/>
<path d="M1367 703 c-8 -13 19 -51 29 -40 5 4 4 11 -2 15 -6 4 -13 14 -16 22
-3 9 -7 10 -11 3z"/>
<path d="M1600 660 l-55 -7 58 -1 c32 -1 57 2 57 8 0 6 -1 9 -2 8 -2 -1 -28
-4 -58 -8z"/>
<path d="M1705 640 c-3 -5 -3 -10 2 -10 4 0 1 -5 -7 -10 -13 -8 -13 -10 2 -10
9 0 20 5 23 10 3 6 1 10 -5 10 -6 0 -8 5 -5 10 3 6 4 10 1 10 -3 0 -8 -4 -11
-10z"/>
<path d="M1460 630 c0 -5 5 -10 11 -10 5 0 7 5 4 10 -3 6 -8 10 -11 10 -2 0
-4 -4 -4 -10z"/>
<path d="M1490 627 c0 -8 7 -14 15 -14 11 0 12 4 4 14 -6 7 -13 13 -15 13 -2
0 -4 -6 -4 -13z"/>
<path d="M1580 618 c0 -6 -8 -20 -17 -31 -18 -19 -17 -19 5 -6 19 12 32 49 17
49 -3 0 -5 -5 -5 -12z"/>
<path d="M1610 618 c0 -6 -9 -21 -20 -33 l-20 -22 32 0 c18 0 27 2 21 5 -7 2
-13 8 -13 13 0 6 4 8 9 5 4 -3 6 6 3 19 -5 26 -12 34 -12 13z"/>
</g>
</svg>
