<?xml version="1.0" encoding="utf-8"?>
<!-- Generator: Adobe Illustrator 22.1.0, SVG Export Plug-In . SVG Version: 6.00 Build 0)  -->
<!DOCTYPE svg PUBLIC "-//W3C//DTD SVG 1.1//EN" "http://www.w3.org/Graphics/SVG/1.1/DTD/svg11.dtd" [
	<!ENTITY st0 "fill:#FFFFFF;">
	<!ENTITY st1 "fill:#158536;">
	<!ENTITY st2 "fill:#E52521;">
	<!ENTITY st3 "fill:#582F13;">
]>
<svg version="1.1" id="Capa_1" xmlns="http://www.w3.org/2000/svg" xmlns:xlink="http://www.w3.org/1999/xlink" x="0px" y="0px"
	 viewBox="0 0 72.28 27.083" style="enable-background:new 0 0 72.28 27.083;" xml:space="preserve">
<g>
	<g>
		<path style="&st0;" d="M2.764,6.295l4.565,12.176l4.588-12.176h2.637v14.49h-1.826V8.73h-0.041L8.162,20.785H6.518L1.992,8.73
			h-0.04v12.055H0.125V6.295H2.764z"/>
		<path style="&st0;" d="M16.441,6.295h2.314l3.613,5.662l3.774-5.662h2.151l-4.79,7.042l5.095,7.448h-2.354l-3.897-5.987
			l-4.018,5.987h-2.151l5.032-7.448L16.441,6.295z"/>
		<path style="&st0;" d="M32.189,6.295l7.632,11.75h0.04V6.295h1.827v14.49h-2.111L32.007,9.157h-0.041v11.628H30.14V6.295H32.189z"
			/>
	</g>
</g>
<g>
	<rect x="51.25" y="0.04" style="&st1;" width="7" height="27"/>
	<rect x="65.25" y="0.04" style="&st2;" width="7" height="27"/>
	<g>
		<rect x="58.25" y="0.04" style="&st0;" width="7" height="27"/>
		<circle style="&st3;" cx="61.75" cy="13.54" r="2"/>
	</g>
</g>
</svg>
