<?xml version="1.0" standalone="no"?>
<!DOCTYPE svg PUBLIC "-//W3C//DTD SVG 20010904//EN"
 "http://www.w3.org/TR/2001/REC-SVG-20010904/DTD/svg10.dtd">
<svg version="1.0" xmlns="http://www.w3.org/2000/svg"
 width="300.000000pt" height="101.000000pt" viewBox="0 0 300.000000 101.000000"
 preserveAspectRatio="xMidYMid meet">
<metadata>
Created by potrace 1.10, written by Peter Selinger 2001-2011
</metadata>
<g transform="translate(0.000000,101.000000) scale(0.100000,-0.100000)"
fill="#000000" stroke="none">
<path d="M475 620 c0 -144 2 -170 15 -170 13 0 15 21 12 142 l-3 143 77 -108
c42 -60 80 -105 84 -100 3 4 27 52 51 106 l44 98 3 -127 c2 -84 -1 -131 -9
-140 -9 -12 -4 -14 32 -14 33 0 40 3 31 12 -17 17 -17 299 0 316 9 9 5 12 -20
12 -24 0 -35 -6 -41 -22 -5 -13 -27 -60 -48 -105 l-39 -83 -74 105 c-53 75
-80 105 -94 105 -20 0 -21 -5 -21 -170z"/>
<path d="M1015 774 c-68 -35 -95 -79 -95 -154 0 -94 57 -161 143 -168 93 -7
152 34 176 126 36 132 -107 257 -224 196z m126 -20 c36 -18 68 -83 69 -137 0
-109 -92 -183 -177 -140 -48 24 -71 57 -79 115 -17 127 85 215 187 162z"/>
<path d="M1360 770 c13 -25 13 -276 0 -301 -10 -18 -7 -19 42 -19 50 0 52 1
30 16 -18 12 -22 25 -22 70 0 69 20 72 58 9 71 -119 83 -136 107 -147 29 -13
75 -2 83 20 3 11 1 11 -17 0 -28 -17 -47 -5 -88 58 -17 27 -43 63 -58 81 -25
30 -25 32 -6 38 35 11 61 54 61 99 -1 71 -36 96 -134 95 -60 -1 -65 -3 -56
-19z m144 -16 c10 -9 16 -33 16 -60 0 -55 -33 -94 -80 -94 l-30 0 0 85 0 85
39 0 c23 0 46 -7 55 -16z"/>
<path d="M1666 783 c-3 -4 -6 -22 -6 -42 l1 -36 14 33 c13 29 19 33 47 30 l33
-3 3 -138 c1 -83 -2 -145 -8 -157 -10 -19 -8 -20 32 -20 33 0 39 3 30 12 -8 8
-12 58 -12 160 l0 148 34 0 c28 0 36 -5 46 -30 16 -39 23 -32 15 13 l-7 36
-108 0 c-59 0 -111 -3 -114 -6z"/>
<path d="M2090 779 c-119 -50 -138 -225 -34 -303 58 -42 154 -33 207 20 102
102 41 280 -100 290 -26 2 -59 -1 -73 -7z m121 -26 c102 -61 82 -250 -30 -284
-74 -22 -148 37 -158 125 -15 127 91 216 188 159z"/>
<path d="M2428 778 c8 -8 12 -58 12 -158 0 -100 -4 -150 -12 -158 -9 -9 -2
-12 32 -12 34 0 41 3 32 12 -8 8 -12 52 -12 132 l0 120 70 -101 c50 -72 70
-110 70 -132 0 -28 3 -31 30 -31 27 0 30 2 20 19 -13 25 -13 288 0 296 21 13
9 25 -26 25 -30 0 -35 -3 -29 -17 10 -25 16 -223 7 -223 -4 0 -14 12 -23 28
-10 15 -40 60 -68 101 -28 41 -51 82 -51 92 0 15 -7 19 -32 19 -25 0 -29 -3
-20 -12z"/>
<path d="M483 244 c-3 -9 6 -27 23 -45 21 -22 25 -32 16 -41 -8 -8 -15 -8 -27
2 -12 10 -15 10 -15 -4 0 -13 7 -17 28 -14 35 4 44 51 13 68 -12 6 -21 17 -21
25 0 18 26 20 33 3 3 -8 6 -6 6 5 1 22 -47 24 -56 1z"/>
<path d="M772 209 c3 -59 25 -82 56 -63 12 8 17 25 18 60 l1 49 -4 -47 c-3
-30 -9 -48 -19 -52 -26 -10 -34 3 -34 55 0 27 -5 49 -11 49 -6 0 -9 -20 -7
-51z"/>
<path d="M1080 201 l0 -61 34 0 c37 0 62 22 50 42 -5 7 -8 26 -9 43 0 27 -3
30 -37 33 l-38 3 0 -60z m58 32 c-5 -26 -38 -29 -38 -4 0 15 6 21 21 21 14 0
19 -5 17 -17z m7 -58 c0 -13 -8 -21 -22 -23 -19 -3 -23 1 -23 23 0 22 4 26 23
23 14 -2 22 -10 22 -23z"/>
<path d="M1406 204 c-10 -31 -15 -58 -13 -61 3 -2 8 5 12 16 8 27 42 27 50 1
3 -11 11 -20 17 -20 6 0 7 7 3 18 -4 9 -14 36 -22 60 -8 23 -18 42 -22 42 -4
0 -15 -25 -25 -56z"/>
<path d="M1703 244 c-3 -9 6 -27 23 -45 21 -22 25 -32 16 -41 -8 -8 -15 -8
-27 2 -12 10 -15 10 -15 -4 0 -13 7 -17 28 -14 35 4 44 51 13 68 -12 6 -21 17
-21 25 0 18 26 20 33 3 3 -8 6 -6 6 5 1 22 -47 24 -56 1z"/>
<path d="M1981 243 c0 -11 3 -13 6 -5 2 6 12 12 20 12 13 0 15 -10 11 -55 -3
-38 -1 -55 7 -55 8 0 10 17 7 55 -4 45 -2 55 11 55 8 0 18 -6 20 -12 3 -8 6
-6 6 5 1 14 -8 17 -44 17 -36 0 -45 -3 -44 -17z"/>
<path d="M2307 204 c-10 -31 -16 -59 -13 -61 2 -3 7 5 11 16 8 27 45 28 52 1
5 -17 23 -29 23 -15 0 13 -42 115 -48 115 -4 0 -15 -26 -25 -56z"/>
<path d="M2603 244 c-3 -9 6 -27 23 -45 21 -22 25 -32 16 -41 -8 -8 -15 -8
-27 2 -12 10 -15 10 -15 -4 0 -24 47 -21 60 4 9 17 6 24 -15 44 -14 13 -25 28
-25 35 0 15 27 14 33 -1 3 -8 6 -6 6 5 1 22 -47 24 -56 1z"/>
</g>
</svg>
